<?xml version="1.0" encoding="utf-8"?>
<svg width="153" height="27" viewBox="0 0 153 27" fill="none" xmlns="http://www.w3.org/2000/svg">
  <text style="white-space: pre; fill: rgb(51, 51, 51); font-family: Arial, sans-serif; font-size: 2.4px;" x="31.041" y="12.891"> </text>
  <text style="white-space: pre; fill: rgb(51, 51, 51); font-family: Arial, sans-serif; font-size: 2.4px;" x="60.216" y="12.128"> </text>
  <path d="M 6.66 25.775 C 6.21 25.775 5.816 25.606 5.479 25.269 C 5.141 24.931 4.973 24.538 4.973 24.088 L 4.973 2.713 C 4.973 2.263 5.141 1.869 5.479 1.531 C 5.816 1.194 6.21 1.025 6.66 1.025 L 15.66 1.025 L 15.66 5.244 L 6.66 5.244 L 6.66 21.556 L 19.035 21.556 L 19.035 17.9 L 20.723 17.9 L 20.723 24.088 C 20.723 24.538 20.554 24.931 20.216 25.269 C 19.879 25.606 19.485 25.775 19.035 25.775 L 6.66 25.775 Z M 19.991 15.256 L 14.76 10.025 L 15.941 8.844 L 19.148 12.022 L 19.148 3.556 L 20.835 3.556 L 20.835 12.022 L 24.041 8.844 L 25.223 10.025 L 19.991 15.256 Z" fill="black"/>
  <text style="fill: rgb(51, 51, 51); font-family: Arial, sans-serif; font-size: 5.6px; font-weight: 700; white-space: pre;" x="30.961" y="12.933" transform="matrix(2.10995, 0, 0, 1.963198, -37.258663, -8.336428)">Installer l'application</text>
</svg>