<?xml version="1.0" encoding="utf-8"?>
<svg width="153" height="27" viewBox="0 0 153 27" fill="none" xmlns="http://www.w3.org/2000/svg">
  <g clip-path="url(#clip0_114_13)">
    <path d="M20.25 1.13625L9 1.125C7.7625 1.125 6.75 2.1375 6.75 3.375V6.75H9V5.625H20.25V21.375H9V20.25H6.75V23.625C6.75 24.8625 7.7625 25.875 9 25.875H20.25C21.4875 25.875 22.5 24.8625 22.5 23.625V3.375C22.5 2.1375 21.4875 1.13625 20.25 1.13625ZM11.25 16.875H13.5V9H5.625V11.25H9.66375L3.375 17.5388L4.96125 19.125L11.25 12.8362V16.875Z" fill="black"/>
  </g>
  <defs>
    <clipPath id="clip0_114_13">
      <rect width="27" height="27" fill="white"/>
    </clipPath>
  </defs>
  <text style="white-space: pre; fill: rgb(51, 51, 51); font-family: Arial, sans-serif; font-size: 2.4px;" x="31.041" y="12.891"> </text>
  <text style="fill: rgb(51, 51, 51); font-family: Arial, sans-serif; font-size: 8.4px; font-weight: 700; white-space: pre; opacity: 0.9;" transform="matrix(1.143184, 0, 0, 1.261375, -10.055685, 0.659159)" x="32.992" y="12.891">Ajouter à l'écran d'accueil</text>
  <text style="white-space: pre; fill: rgb(51, 51, 51); font-family: Arial, sans-serif; font-size: 2.4px;" x="60.216" y="12.128"> </text>
</svg>