<?xml version="1.0" encoding="utf-8"?>
<svg width="101" height="27" viewBox="0 0 101 27" fill="none" xmlns="http://www.w3.org/2000/svg">
  <path d="M9.3125 25.875C8.8625 25.875 8.46875 25.7062 8.13125 25.3687C7.79375 25.0312 7.625 24.6375 7.625 24.1875V2.8125C7.625 2.3625 7.79375 1.96875 8.13125 1.63125C8.46875 1.29375 8.8625 1.125 9.3125 1.125H18.3125V5.34375H9.3125V21.6562H21.6875V18H23.375V24.1875C23.375 24.6375 23.2062 25.0312 22.8687 25.3687C22.5312 25.7062 22.1375 25.875 21.6875 25.875H9.3125ZM22.6437 15.3562L17.4125 10.125L18.5937 8.94375L21.8 12.1219V3.65625H23.4875V12.1219L26.6937 8.94375L27.875 10.125L22.6437 15.3562Z" fill="black"/>
  <text style="fill: rgb(51, 51, 51); font-family: Arial, sans-serif; font-size: 5.6px; font-weight: 700; white-space: pre;" x="30.961" y="12.933" transform="matrix(1.04642, 0, 0, 1.634095, -2.388979, -5.140238)">Installer l'application</text>
</svg>