<?xml version="1.0" encoding="utf-8"?>
<svg width="101" height="27" viewBox="0 0 101 27" fill="none" xmlns="http://www.w3.org/2000/svg">
  <path d="M 2.818 25.875 C 2.368 25.875 1.974 25.706 1.637 25.369 C 1.299 25.031 1.131 24.638 1.131 24.188 L 1.131 2.813 C 1.131 2.363 1.299 1.969 1.637 1.631 C 1.974 1.294 2.368 1.125 2.818 1.125 L 11.818 1.125 L 11.818 5.344 L 2.818 5.344 L 2.818 21.656 L 15.193 21.656 L 15.193 18 L 16.881 18 L 16.881 24.188 C 16.881 24.638 16.712 25.031 16.374 25.369 C 16.037 25.706 15.643 25.875 15.193 25.875 L 2.818 25.875 Z M 16.149 15.356 L 10.918 10.125 L 12.099 8.944 L 15.306 12.122 L 15.306 3.656 L 16.993 3.656 L 16.993 12.122 L 20.199 8.944 L 21.381 10.125 L 16.149 15.356 Z" fill="black"/>
  <text style="fill: rgb(51, 51, 51); font-family: Arial, sans-serif; font-size: 5.6px; font-weight: 700; white-space: pre;" x="30.961" y="12.933" transform="matrix(1.406702, 0, 0, 1.80014, -21.325853, -6.88373)">Installer l'application</text>
</svg>